<svg xmlns="http://www.w3.org/2000/svg" version="1.1" xmlns:xlink="http://www.w3.org/1999/xlink" xmlns:svgjs="http://svgjs.dev/svgjs" viewBox="0 0 11.269292823158247 11.26699852829799"><g transform="matrix(1,0,0,1,3.3289184311528777,3.3280894741906106)"><g><path d=" M -2.371086072582046 2.2196552906701683 L -1.6722240588493185 2.259553733765567 L -1.6670372612469166 2.1687016719803123 L -2.0144715195026155 2.1488664459843143 L -1.996802208988939 1.8393704113312492 L -2.0427274270342326 1.8367485136421229 L -2.0603967375479093 2.146244548295188 L -2.3109886881863586 2.131938106556695 L -2.290412491104303 1.771524982331674 L -2.3453230778975884 1.7683901046598927 L -2.371086072582046 2.2196552906701683 Z M -1.615787303848335 1.636111977815084 L -2.299736222591232 1.487068774177942 L -2.2803606061184034 1.3981554147413653 L -1.6501505309910198 1.535488080949875 L -1.5732868216867222 1.182765852855324 L -1.519547978071209 1.1944763902839566 L -1.615787303848335 1.636111977815084 Z M -2.1284867494966737 0.800979106396756 L -1.7302773353697574 0.9632420488719196 Q -1.6923085307669585 0.9787136317590863 -1.6434492992807175 0.9899841906881683 Q -1.5945900677944764 1.0012547496172504 -1.5439114901790139 0.9895103138762897 Q -1.4932329125635515 0.9777658781353292 -1.4445759778922684 0.9338824791284783 Q -1.3959190432209851 0.8899990801216274 -1.3574287638431557 0.7955401028171032 Q -1.3332780003119686 0.7362717249005388 -1.3331202622422422 0.6828842252522003 Q -1.332962524172516 0.6294967256038616 -1.3527335030597814 0.585265985232042 Q -1.3725044819470467 0.5410352448602224 -1.409151616214079 0.5077450428480068 Q -1.445798750481111 0.47445484083579137 -1.4948803759432658 0.454454989786527 L -1.9171675685987861 0.2823807996268186 L -1.9337712185264773 0.3231278094444566 L -1.5420442832341854 0.48274926215839664 Q -1.5216707783253665 0.4910510871222422 -1.501211594894249 0.5004676583311214 Q -1.4807524114631319 0.5098842295400008 -1.4618026507527135 0.5230050743686653 Q -1.4428528900422954 0.5361259191973299 -1.426441619775312 0.5541514624131119 Q -1.4100303495083284 0.5721770056288937 -1.3972039582030054 0.5990001986916657 Q -1.3746720948963917 0.6470555327965501 -1.3786881428350093 0.6940115905415816 Q -1.3827041907736268 0.740967648286613 -1.401194619102192 0.7863450001289825 Q -1.4170435576695335 0.8252398731367279 -1.4413465065395166 0.8504314724552107 Q -1.4656494554094996 0.8756230717736936 -1.500670548663173 0.892667807832592 Q -1.5278710974061198 0.9064202675428613 -1.5509207336671438 0.9099859747987211 Q -1.5739703699281677 0.9135516820545809 -1.5942928379056696 0.9117496567208503 Q -1.6146153058831716 0.9099476313871195 -1.6335140296622728 0.90332658618857 Q -1.6524127534413737 0.8967055409900202 -1.6709341215403002 0.8891584273865243 L -2.0941473826007666 0.7167068815466411 L -2.1284867494966737 0.800979106396756 Z M -1.7522137107859261 -0.021146894316638076 L -1.1588813304334395 0.35027831541642807 L -0.919046766434374 -0.03284487875403469 L -0.9656657391763551 -0.06202828809020422 L -1.1572150259101222 0.24396169663443532 L -1.4055670079719487 0.08849371598902334 L -1.241078700804448 -0.1742677667385064 L -1.2800691143704683 -0.19867570909239363 L -1.444557421537969 0.06408577363513612 L -1.6573094607786465 -0.06909669442629185 L -1.4657601740448796 -0.3750866791509313 L -1.5123791467868606 -0.4042700884871009 L -1.7522137107859261 -0.021146894316638076 Z M -0.9443711487224551 -1.0636340608856705 L -0.5522083236829849 -0.6997201718170312 L -0.55492917519004 -0.6967881133120633 L -1.33340632234833 -0.6620414393375579 L -1.3368073867321488 -0.6583763662063479 L -0.8149009728478445 -0.17406479795051402 L -0.7836111805167092 -0.20778347075764603 L -1.1757740055561794 -0.5716973598262853 L -1.1730531540491242 -0.5746294183312532 L -0.3945760068908345 -0.6093760923057585 L -0.39117494250701546 -0.6130411654369685 L -0.9130813563913197 -1.0973527336928024 L -0.9443711487224551 -1.0636340608856705 Z M 0.014548343504884265 -0.9419171890327545 L -0.3632725318055255 -1.4646756286391138 L -0.14606437395358085 -1.6216616667525865 L -0.17828165789477857 -1.6662379678042916 L -0.6864514898842162 -1.2989609308746375 L -0.6542342059430186 -1.2543846298229324 L -0.43702604809107387 -1.411370667936405 L -0.05920517278066412 -0.8886122283300455 L 0.014548343504884265 -0.9419171890327545 Z M 0.4636770721557612 -1.9940278531473226 L 0.7141980974749071 -1.3403924686453481 L 0.7991706974601638 -1.372960201936837 L 0.6746259591586455 -1.6979103645178186 L 0.9640930580095199 -1.8088553900162976 L 0.9476302477742617 -1.8518085724264273 L 0.6581631489233873 -1.7408635469279483 L 0.5683334669875222 -1.9752385205136562 L 0.9054225724235404 -2.1044357921425303 L 0.885738777577036 -2.1557928580676853 L 0.4636770721557612 -1.9940278531473226 Z M 1.174310703454663 -1.8853058335459445 Q 1.1840816591630279 -1.8301648467525875 1.2163314252976414 -1.7713902554374388 Q 1.2485811914322549 -1.71261566412229 1.3032975664455786 -1.6674701404748529 Q 1.3580139414589023 -1.6223246168274157 1.4341189234227472 -1.5997573458297323 Q 1.5102239053865918 -1.577190074832049 1.6077052927534194 -1.594463728673623 Q 1.6736775448097572 -1.606153979253274 1.724462598578506 -1.6319101108282077 Q 1.7752476523472547 -1.6576662424031412 1.8131949053057692 -1.6928266746089962 Q 1.8511421582642837 -1.727987106814851 1.8762827242291427 -1.769510617540301 Q 1.9014232901940016 -1.8110341282657514 1.914542335248913 -1.8544897453577591 Q 1.9276613803038245 -1.897945362449767 1.9308465798982402 -1.9401484962616504 Q 1.9340317794926558 -1.9823516300735338 1.9275759694710577 -2.0187840677762874 Q 1.9178050137626927 -2.073925054569645 1.8840782569104 -2.1324379238568905 Q 1.8503515000581072 -2.1909507931441365 1.793665804087878 -2.2357473540877035 Q 1.7369801081176486 -2.280543915031271 1.658413474957672 -2.302674982649116 Q 1.5798468417976952 -2.324806050266962 1.4813807939524148 -2.3073579150734527 Q 1.3838994065855874 -2.290084261231879 1.3200953599331664 -2.2432329684986394 Q 1.2562913132807454 -2.1963816757653998 1.2203316836004436 -2.1356761979791608 Q 1.184372053920142 -2.0749707201929217 1.1743686601572525 -2.008201100505338 Q 1.1643652663943629 -1.9414314808177542 1.174310703454663 -1.8853058335459445 Z M 1.2708074303430377 -1.902405006035583 Q 1.2585937357075816 -1.9713312395272793 1.269556776906114 -2.032685226583373 Q 1.2805198181046467 -2.094039213639466 1.310116369265353 -2.14193800443205 Q 1.3397129204260594 -2.1898367952246334 1.3858302930566777 -2.2218748654169636 Q 1.431947665687296 -2.253912935609294 1.4910272943944642 -2.2643818167253995 Q 1.5491222626231798 -2.2746762164895697 1.6049172495124266 -2.260696966222521 Q 1.6607122364016733 -2.2467177159554725 1.7069345420818327 -2.2122539892618907 Q 1.7531568477619923 -2.177790262568309 1.7860111978546094 -2.124200695673327 Q 1.8188655479472267 -2.070611128778345 1.831079242582683 -2.001684895286649 Q 1.843292937218139 -1.9327586617949526 1.8308529053019273 -1.8711429527109567 Q 1.8184128733857157 -1.8095272436269605 1.7868470012681037 -1.7612794901305067 Q 1.7552811291504917 -1.7130317366340528 1.7076867658021941 -1.6807319444138198 Q 1.6600924024538966 -1.6484321521935867 1.601997434225181 -1.6381377524294165 Q 1.5429178055180128 -1.6276688713133112 1.4885998093464452 -1.6419098436082624 Q 1.4342818131748776 -1.656150815903214 1.3900288284516238 -1.6909635053006657 Q 1.34577584372837 -1.7257761946981176 1.314398484353432 -1.7796274836210022 Q 1.283021124978494 -1.8334787725438868 1.2708074303430377 -1.902405006035583 Z M 2.1661045429626684 -2.3746758271581636 L 2.153167209510742 -1.9448704928460432 Q 2.1519336498095116 -1.9038890539930269 2.1584407304342244 -1.8541707686068285 Q 2.1649478110589375 -1.80445248322063 2.1936555397976742 -1.76106911877453 Q 2.2223632685364105 -1.7176857543284303 2.280479084166725 -1.6874235340922463 Q 2.3385948997970396 -1.6571613138560621 2.4405487232850307 -1.6540924580139773 Q 2.5045197497873 -1.652166901407179 2.554599077037273 -1.6706685495010674 Q 2.6046784042872466 -1.6891701975949558 2.6392162772413705 -1.7231464441770132 Q 2.6737541501954953 -1.7571226907590705 2.6921454913322873 -1.8030901637284447 Q 2.7105368324690797 -1.8490576366978186 2.7121314340340845 -1.9020336430200102 L 2.725851024857523 -2.3578272068486776 L 2.6818709441372133 -2.3591510270158516 L 2.669144218439155 -1.9363425237274168 Q 2.6684823083555678 -1.9143524833672616 2.6668058075718926 -1.891892756184539 Q 2.665129306788217 -1.8694330290018162 2.6594546168481497 -1.8470936491070182 Q 2.6537799269080824 -1.8247542692122205 2.642622770288967 -1.8030801404828682 Q 2.6314656136698513 -1.7814060117535162 2.610812757804305 -1.7600177078329857 Q 2.5736556693395114 -1.7221184891494896 2.528254825822366 -1.7094787340912734 Q 2.4828539823052207 -1.6968389790330571 2.433876165139421 -1.6983132333101372 Q 2.391895178997307 -1.6995768798333486 2.3598010207873794 -1.7135488163060117 Q 2.3277068625774517 -1.727520752778675 2.299502248565123 -1.7543815001326772 Q 2.2771143973554944 -1.7750644428202047 2.2657215663259436 -1.7954164304659384 Q 2.2543287352963928 -1.8157684181116722 2.248918144590439 -1.8354401111809697 Q 2.243507553884485 -1.8551118042502672 2.2431097430350113 -1.8751328368542075 Q 2.242711932185538 -1.8951538694581478 2.2433136686251625 -1.915144815240107 L 2.2570633462705825 -2.371937926357872 L 2.1661045429626684 -2.3746758271581636 Z M 3.6395255334465437 -2.181373604956803 L 3.515645339987886 -1.6609135222716411 L 3.511754049650053 -1.6618397293255378 L 3.0984963298960735 -2.3224849117523387 L 3.0936322169737824 -2.3236426705697095 L 2.928767361380204 -1.630992990435438 L 2.973517200265283 -1.6203416093156282 L 3.0973973937239414 -2.14080169200079 L 3.101288684061774 -2.1398754849468937 L 3.5145464038157535 -1.4792303025200924 L 3.519410516738045 -1.4780725437027218 L 3.6842753723316233 -2.170722223836993 L 3.6395255334465437 -2.181373604956803 Z M 3.7802611108536985 -1.393136273751254 L 4.080262782393869 -2.025591012901103 L 4.288069339543106 -1.9270190351093328 Q 4.363060401470873 -1.8914474083409982 4.414045162478766 -1.8379328855927943 Q 4.465029923486659 -1.7844183628445904 4.489824826145659 -1.7211908941135812 Q 4.514619728804658 -1.657963425382572 4.5120374407304435 -1.5883532121355077 Q 4.509455152656229 -1.5187429988884433 4.477740690236268 -1.451883497892602 Q 4.444740506366849 -1.3823134765861187 4.391347552252404 -1.336251643677161 Q 4.337954598137959 -1.2901898107682033 4.2730880436375225 -1.268939396484197 Q 4.208221489137086 -1.2476889822001906 4.137447123074322 -1.252483678062698 Q 4.066672757011559 -1.2572783739252054 3.9989097492455037 -1.2894214101616523 L 3.7802611108536985 -1.393136273751254 Z M 3.881337474868561 -1.393890354340451 L 3.980723219592109 -1.3467472345269957 Q 4.0548107747496624 -1.3116041815751471 4.1185481939903354 -1.3118076233080913 Q 4.1822856132310084 -1.3120110650410357 4.234572611654311 -1.3359081317204744 Q 4.286859610077614 -1.359805198399913 4.325576498169738 -1.4017605624963185 Q 4.364293386261862 -1.443715926592724 4.387436372352104 -1.4925052921842838 Q 4.413150801341261 -1.546715698397128 4.418866512751951 -1.605431800473728 Q 4.42458222416264 -1.664147902550328 4.408011600710051 -1.7190470322191356 Q 4.391440977257463 -1.7739461618879429 4.3506554367674095 -1.8209625386829942 Q 4.309869896277356 -1.8679789154780457 4.243010395281515 -1.8996933778980065 L 4.1436246505579675 -1.946836497711462 L 3.881337474868561 -1.393890354340451 Z M 4.906378245969766 -0.972741830759617 L 4.864325109315078 -0.7493956114105933 L 4.943146942864674 -0.6928613867685258 L 5.08621951515621 -1.4516803632430755 L 5.0455897040481705 -1.4808217161513577 L 4.397082281572627 -1.0845211698558395 L 4.434461707792023 -1.0577111251802198 L 4.626032549324295 -1.1738171658267647 L 4.906378245969766 -0.972741830759617 Z M 4.915540942921843 -1.0215480289783307 L 4.667699095162804 -1.1993102817188526 L 4.981125669755779 -1.389228112211184 L 4.9843760546444225 -1.3868968039785217 L 4.915540942921843 -1.0215480289783307 Z M 5.157810238288846 -0.4615871963279392 L 5.615609754770523 -0.9159489494598936 L 5.804398824288916 -0.7257314759450264 L 5.843435992360997 -0.7644755014058906 L 5.4017541021071445 -1.2094992174276136 L 5.362716934035063 -1.1707551919667494 L 5.551506003553457 -0.9805377184518821 L 5.09370648707178 -0.5261759653199277 L 5.157810238288846 -0.4615871963279392 Z M 6.027080041598362 -0.5220845981601292 L 5.465594457271685 -0.10407271005964691 L 5.519936002724748 -0.031079584097178897 L 6.081421587051424 -0.4490914721976612 L 6.027080041598362 -0.5220845981601292 Z M 5.979239856777408 -0.006213403075254892 Q 5.92939774344061 0.01931626081054283 5.88268191445236 0.06740088747999474 Q 5.8359660854641096 0.11548551414944665 5.808874842938389 0.18104514028026406 Q 5.781783600412667 0.24660476641108148 5.782555227420441 0.32598142917641115 Q 5.783326854428214 0.40535809194174083 5.828459653083464 0.49347182801929407 Q 5.8590040723754 0.55310435647582 5.898535528658135 0.5940892800961739 Q 5.938066984940869 0.6350742037165278 5.982819119806273 0.6610260133834629 Q 6.027571254671675 0.686977823050398 6.074646011477722 0.6988191604601466 Q 6.121720768283769 0.7106604978698949 6.167112977208754 0.7104428538704226 Q 6.21250518613374 0.7102252098709502 6.253783545376768 0.700879245062355 Q 6.295061904619796 0.6915332802537599 6.327993300931609 0.6746654666149293 Q 6.377835414268406 0.6491358027291316 6.423867412974001 0.599716119452444 Q 6.469899411679596 0.5502964361757564 6.49607888049511 0.4829567345686248 Q 6.522258349310625 0.4156170329614932 6.5203470051650925 0.33401527585077073 Q 6.51843566101956 0.25241351874004836 6.472846975509206 0.16340974492433796 Q 6.427714176853957 0.07529600884678472 6.364194889306108 0.028059369366253945 Q 6.300675601758258 -0.019177270114276862 6.232087787432091 -0.035729059321464696 Q 6.163499973105924 -0.05228084852865261 6.096735990479143 -0.04223990117240434 Q 6.029972007852363 -0.03219895381615612 5.979239856777408 -0.006213403075254892 Z M 6.023916768577553 0.08101029526414125 Q 6.086219410248551 0.0490982154068941 6.148088185315467 0.041564645753715296 Q 6.209956960382384 0.03403107610053652 6.264434302451365 0.0482602433670796 Q 6.3189116445203455 0.06248941063362268 6.363077760977317 0.09716799418470201 Q 6.40724387743429 0.1318465777357813 6.434597088740501 0.18524884202520753 Q 6.46149441319161 0.2377610685764766 6.464512586237853 0.2952013909246575 Q 6.467530759284097 0.3526417132728384 6.4481567050580875 0.4069454518443923 Q 6.428782650832079 0.4612491904159462 6.387200840817269 0.508389439417116 Q 6.34561903080246 0.555529688418286 6.283316389131462 0.5874417682755332 Q 6.221013747460465 0.6193538481327803 6.158461142110894 0.6255523611787234 Q 6.095908536761322 0.6317508742246666 6.040519420982134 0.6157416314818093 Q 5.985130305202946 0.599732388738952 5.940280358463319 0.563718748580637 Q 5.895430411723692 0.5277051084223221 5.868533087272583 0.47519288187105296 Q 5.841179875966372 0.4217906175816267 5.838845533202783 0.36568535184068146 Q 5.836511190439196 0.30958008609973625 5.856797018375412 0.2570564230044966 Q 5.877082846311628 0.20453275990925693 5.919348486609092 0.15872756751532266 Q 5.961614126906556 0.11292237512138839 6.023916768577553 0.08101029526414125 Z M 6.896446332325363 1.3929399077710105 L 6.378282623697866 1.5260991022015813 L 6.3772870409357685 1.5222249810155812 L 6.768936004880206 0.8485447237412207 L 6.767691526427583 0.8437020722587207 L 6.078097955319588 1.0209158039121158 L 6.089547157083712 1.0654681975511155 L 6.6077108657112085 0.9323090031205448 L 6.608706448473306 0.9361831243065448 L 6.217057484528869 1.6098633815809054 L 6.218301962981491 1.6147060330634053 L 6.907895534089487 1.4374923014100103 L 6.896446332325363 1.3929399077710105 Z M 6.43211622582071 1.781824097751044 Q 6.389313147903824 1.786395369001028 6.35560350308993 1.8089543992665587 Q 6.321893858276037 1.8315134295320896 6.2995635788126325 1.8684167982006308 Q 6.277233299349229 1.9053201668691722 6.266631786842722 1.9540424198196915 Q 6.256030274336216 2.0027646727702106 6.259443461034103 2.0596623893901715 Q 6.262916528200375 2.1175583115648684 6.279675847746536 2.163136543302724 Q 6.296435167292698 2.208714775040579 6.32436456717251 2.2400986661688886 Q 6.352293967052321 2.2714825572971975 6.390305421008471 2.287234679952241 Q 6.4283168749646205 2.302986802607284 6.473236124927747 2.300292181530004 Q 6.535124869321389 2.296579592490197 6.572697694213564 2.2632699417922084 Q 6.610270519105738 2.22996029109422 6.633938524526391 2.181956900386813 Q 6.657606529947043 2.1339535096794062 6.672310744405366 2.078473458515374 Q 6.687014958863689 2.0229934073513416 6.704194628178557 1.9753792396884307 Q 6.7213742974934245 1.9277650720255197 6.745471347396661 1.8952638076507151 Q 6.7695683972998975 1.8627625432759105 6.8124912361535515 1.860187683135399 Q 6.83644816946722 1.8587505518941831 6.85803923103471 1.8679742203828489 Q 6.879630292602202 1.8771978888715148 6.896330028302484 1.896732955483654 Q 6.913029764002766 1.9162680220957933 6.9243091308242795 1.9456453242882301 Q 6.935588497645792 1.9750226264806667 6.937923835912768 2.0139526431153767 Q 6.9418160663577275 2.078836004173227 6.917089974913955 2.1259010697942817 Q 6.892363883470182 2.1729661354153365 6.833948799487821 2.184484727487881 L 6.838020671337933 2.2523627052099395 Q 6.874594994052867 2.244157894551315 6.902784568081519 2.221429104084528 Q 6.930974142110172 2.198700313617741 6.949521180993975 2.1655301862643124 Q 6.968068219877779 2.1323600589108835 6.976124219232957 2.0913039890260374 Q 6.9841802185881345 2.0502479191411913 6.981545477979239 2.0063268747328005 Q 6.978790976433576 1.9604094192149373 6.964327470338806 1.9197024543139949 Q 6.949863964244036 1.8789954894130523 6.925019001731009 1.8489292652116953 Q 6.900174039217982 1.8188630410103381 6.864129056137113 1.802492054641159 Q 6.828084073056243 1.78612106827198 6.7831648230931165 1.7888156893492595 Q 6.724270695363684 1.792348636983915 6.690131709444701 1.8244505004878233 Q 6.65599272352572 1.8565523639917316 6.634760351523524 1.9034078479734422 Q 6.6135279795213275 1.9502633319551532 6.599732149915164 2.004186194318697 Q 6.585936320309001 2.058109056682241 6.567199462193646 2.104814839492992 Q 6.54846260407829 2.151520622303743 6.5193146459329885 2.1833230834657313 Q 6.490166687787688 2.2151255446277194 6.438259998941407 2.218239328983687 Q 6.373376637883558 2.2221315594286466 6.340586148993234 2.176513209630199 Q 6.30779566010291 2.130894859831751 6.3030651031005736 2.0520366210075953 Q 6.2992926335923825 1.9891496710592174 6.313487567446938 1.9502298322509077 Q 6.327682501301492 1.9113099934425979 6.349443619692744 1.889968631575043 Q 6.371204738083995 1.8686272697074882 6.395241610896344 1.8601727593489272 Q 6.419278483708691 1.8517182489903665 6.436188097670822 1.8497020754731024 L 6.43211622582071 1.781824097751044 Z" fill="#595959" fill-rule="nonzero"></path></g><g><path d=" M -1.5959513397189558 4.863361012854367 Q -1.6060779156823826 4.806530541632873 -1.5877789087152008 4.757396578389359 Q -1.569479901748019 4.708262615145845 -1.527028516511757 4.676468277732989 L -1.484933036128447 4.737328531850914 Q -1.524032976102739 4.770452461177109 -1.5329424432406806 4.8252509227916285 Q -1.5418519103786226 4.880049384406147 -1.4980498564662594 4.943376946123448 Q -1.4576609496120025 5.001769892641997 -1.4040344400010345 5.015137669829876 Q -1.350407930390067 5.028505447017755 -1.3043515218683943 4.996649407808763 Q -1.2673419078777644 4.9710508048729665 -1.2578086519395644 4.936491189261436 Q -1.2482753960013646 4.901931573649905 -1.2565136784667774 4.866289173309579 Q -1.2647519609321904 4.830646772969253 -1.2857244576499176 4.772198895493463 Q -1.3099182251984465 4.703820085824036 -1.3184375511659203 4.659860774124922 Q -1.3269568771333944 4.615901462425807 -1.312201191655487 4.570434224263839 Q -1.2974455061775796 4.524966986101871 -1.2439871748577809 4.487991226305721 Q -1.199575638069025 4.457272902782765 -1.1486940941400459 4.456124648715349 Q -1.0978125502110663 4.454976394647932 -1.0490623394221608 4.483268035604889 Q -1.0003121286332552 4.511559676561844 -0.962767510994087 4.565840443748101 Q -0.9075883002213697 4.6456167227945695 -0.9128069622185924 4.721572404392188 Q -0.9180256242158149 4.797528085989806 -0.9745885936130386 4.84759434701426 L -1.017821789682384 4.785089221163418 Q -0.9864390523257951 4.754871282848448 -0.9816417645201454 4.702917110449017 Q -0.9768444767144958 4.650962938049586 -1.0155268100396997 4.5950372991304125 Q -1.0513648541498148 4.543223839543531 -1.1028084850829163 4.527738270893369 Q -1.1542521160160175 4.512252702243208 -1.201953396270607 4.5452464571382345 Q -1.2381405743947784 4.570276202231014 -1.2472626123997492 4.604551388921036 Q -1.25638465040472 4.638826575611058 -1.2482731569510275 4.675164622806122 Q -1.2401616634973347 4.711502670001186 -1.2197580246226254 4.7691281116105175 Q -1.1967019727601318 4.8358620495470275 -1.1880250068828695 4.88092822603411 Q -1.179348041005607 4.925994402521192 -1.1941037264835144 4.9714616406831595 Q -1.2088594119614218 5.0169288788451265 -1.261495307414762 5.0533357807982595 Q -1.3017946648712255 5.081209815106127 -1.3527721469138572 5.084856227670986 Q -1.403749628956489 5.088502640235846 -1.4549671473447696 5.0619175728079435 Q -1.5061846657330504 5.035332505380041 -1.5465735725873073 4.976939558861492 Q -1.585824763755529 4.920191484075859 -1.5959513397189558 4.863361012854367 Z M -0.7217621241945277 5.4037851581346485 Q -0.8022442339293224 5.398434456065157 -0.8830297229460212 5.312424545215693 L -0.9795615360930936 5.209649990726079 L -1.1967730058654702 5.413667581632657 L -1.2446966010448677 5.362644753162636 L -0.7351972138942262 4.884093424156936 L -0.5907418055677562 5.037890807116572 Q -0.5106409393393345 5.123171820416465 -0.5099952486632919 5.204195477971224 Q -0.5093495579872492 5.285219135525983 -0.5756792349982769 5.3475198092592 Q -0.641280014459733 5.40913586020414 -0.7217621241945277 5.4037851581346485 Z M -0.6249720757542288 5.295039185690035 Q -0.5739492472842074 5.247115590510638 -0.5744092242424323 5.194042165699364 Q -0.5748692012006571 5.14096874088809 -0.6337467609924885 5.078283551624922 L -0.7302785741395608 4.975508997135307 L -0.9358276831187896 5.168572623429451 L -0.8392958699717172 5.271347177919066 Q -0.7270177326942715 5.39088637604883 -0.6249720757542288 5.295039185690035 Z M -0.3020547718332467 5.391277173625833 L -0.46544192549137714 5.594810065364477 L -0.25878975571842466 5.760701236703192 L -0.295098012086898 5.8059307682006684 L -0.5017501818598505 5.640039596861953 L -0.6676413531985653 5.846691766634906 L -0.4375945981682975 6.031363070578004 L -0.47390285453677095 6.07659260207548 L -0.7585369751674413 5.848100988722156 L -0.3203338810651758 5.302227332718131 L -0.03569976043450551 5.530718946071454 L -0.07200801680297886 5.5759484775689305 L -0.3020547718332467 5.391277173625833 Z M 0.1288960531974559 5.7089581320451 L -0.0061430755589859665 5.932308604855661 L 0.220630393003461 6.0694172988037725 L 0.19062169772425164 6.119050737206119 L -0.03615177083819526 5.981942043258008 L -0.17326046478630674 6.208715511820455 L 0.07918547191528513 6.3613459447060885 L 0.049176776636075836 6.410979383108435 L -0.2631715857235209 6.2221315593685835 L 0.09900232281866034 5.623107302788535 L 0.4113506851782571 5.811955126528387 L 0.3813419898990478 5.8615885649307335 L 0.1288960531974559 5.7089581320451 Z M 0.5053148797580713 6.051881908450192 Q 0.5771846220274335 5.992704293204768 0.666463193666186 5.9791548782305295 Q 0.7557417653049388 5.965605463256291 0.8449837911244136 6.000987108605768 Q 0.9537475100918986 6.044108488875444 1.0109144667484626 6.126476195330259 Q 1.0680814234050269 6.208843901785073 1.0661819525804732 6.316739184400147 L 0.9899543888596718 6.286517362330802 Q 0.9882339309974701 6.209458683230103 0.9458056104358179 6.1496081392533135 Q 0.9033772898741657 6.089757595276524 0.8225017039752666 6.05769297917856 Q 0.7509221624325628 6.0293139511378335 0.6804833726359077 6.040113344268128 Q 0.6100445828392527 6.050912737398422 0.552630708206218 6.10076147860241 Q 0.4952168335731832 6.150610219806397 0.462415099863772 6.2333450145765354 Q 0.4296133661543608 6.316079809346674 0.437456081417555 6.391262864733513 Q 0.44529879668074923 6.466445920120352 0.4892013524652963 6.522578046354663 Q 0.5331039082498434 6.578710172588975 0.6046834497925473 6.6070892006297015 Q 0.6855590356914463 6.639153816727665 0.7572877813081343 6.625100808072703 Q 0.8290165269248224 6.611047799417741 0.8827037763940688 6.557032253096085 L 0.9589313401148702 6.58725407516543 Q 0.886750490988956 6.666209284109882 0.7883929840821109 6.6863785883881635 Q 0.6900354771752657 6.706547892666445 0.5822013626434002 6.663795071202493 Q 0.49295933682392534 6.628413425853016 0.43721961650603136 6.557368837185877 Q 0.3814798961881374 6.486324248518739 0.36950095984888 6.394441142975989 Q 0.3575220235096226 6.30255803743324 0.3954835804991659 6.206808780564428 Q 0.43344513748870916 6.111059523695617 0.5053148797580713 6.051881908450192 Z M 1.812271618494684 6.264925974258853 L 1.6809624269514778 6.951481795890474 L 1.6122086250713439 6.938332091444087 L 1.6736365301280371 6.617153616946891 L 1.301383802805599 6.545957360015739 L 1.239955897748906 6.8671358345129345 L 1.1712020958687723 6.853986130066548 L 1.3025112874119789 6.167430308434927 L 1.3712650892921125 6.180580012881315 L 1.312279272204034 6.488989924172199 L 1.684531999526472 6.560186181103352 L 1.7435178166145504 6.251776269812466 L 1.812271618494684 6.264925974258853 Z M 2.704955047642525 6.273570670014846 L 2.70744300918736 6.331517283784344 L 2.5136215769238652 6.33983908619293 L 2.5411178415831595 6.9802490763006615 L 2.4711822732406614 6.983251788509945 L 2.443686008581367 6.342841798402213 L 2.2488654967701223 6.351206496699502 L 2.2463775352252875 6.293259882930004 L 2.704955047642525 6.273570670014846 Z M 3.3499860200215186 6.156335872731672 L 3.488721811062888 6.841429574559477 L 3.4201144303362123 6.8553230014162665 L 3.3552122791623527 6.5348285228787955 L 2.9837523177993512 6.610051505431985 L 3.0486544689732105 6.930545983969456 L 2.980047088246535 6.944439410826245 L 2.8413112972051655 6.25934570899844 L 2.909918677931841 6.245452282141651 L 2.9722406212608683 6.553205389972739 L 3.34370058262387 6.4779824074195504 L 3.281378639294843 6.170229299588462 L 3.3499860200215186 6.156335872731672 Z M 3.612332643435555 6.128080025403673 L 3.7029471519768076 6.372845241155069 L 3.9514635587742015 6.280842004513567 L 3.971600116227813 6.335234274680544 L 3.723083709430419 6.427237511322046 L 3.8150869460719203 6.67575391811944 L 4.091737285714303 6.5733352207260705 L 4.111873843167914 6.627727490893047 L 3.76957766022056 6.754448930040776 L 3.5265502426769713 6.097990496991056 L 3.8688464256243256 5.971269057843327 L 3.888982983077937 6.025661328010304 L 3.612332643435555 6.128080025403673 Z M 4.679434989592314 6.342412780896984 L 4.388011429115944 6.168443506600414 L 4.274664487692816 6.2300346656252445 L 4.414080134477705 6.48660293613341 L 4.352574042232597 6.520024495294171 L 4.0188359014701405 5.905842231303734 L 4.203354178205465 5.805577553821451 Q 4.30615721810086 5.7497158049384645 4.386053302298454 5.770034902602751 Q 4.4659493864960496 5.790354000267037 4.509397413405039 5.870311920185677 Q 4.545683677636722 5.937089963194651 4.533005654814415 6.004867302603314 Q 4.520327631992108 6.072644642011977 4.453280876359794 6.127286499220355 L 4.753242300286444 6.30230690990407 L 4.679434989592314 6.342412780896984 Z M 4.247449789519053 6.1799511333685135 L 4.371340632469914 6.112630564201838 Q 4.443390626242755 6.073479594899232 4.460756918553349 6.018519046399576 Q 4.478123210863942 5.96355849789992 4.446134004238642 5.904688381036745 Q 4.4131898959230345 5.844060947252282 4.3601391508039935 5.830209288784266 Q 4.307088405684953 5.81635763031625 4.231523778069534 5.857418402999471 L 4.108511593579318 5.924261521320993 L 4.247449789519053 6.1799511333685135 Z M 5.197915891052613 5.775355159118841 L 4.946636853190165 5.970247039737101 L 5.000171541470109 6.13880277873987 L 4.9416978030996015 6.184154977374308 L 4.720316535893074 5.482645651327938 L 4.7827412025318585 5.43422911494793 L 5.406326967449034 5.823788858495259 L 5.3478532290785274 5.869141057129697 L 5.197915891052613 5.775355159118841 Z M 5.1457756744772345 5.742394609738216 L 4.805066120707673 5.528280154434174 L 4.9276844340683175 5.911546053293688 L 5.1457756744772345 5.742394609738216 Z M 5.592839925720414 5.12600051267958 Q 5.592698843286506 5.206660168615784 5.512086580309126 5.292832455678771 L 5.415761757598868 5.395801035982848 L 5.633383296113868 5.599381157739281 L 5.585562462144236 5.650500311081731 L 5.075101202338916 5.172975126156406 L 5.219246859018806 5.018887392509879 Q 5.2991759672251915 4.93344537906607 5.379988725154161 4.927567611129699 Q 5.46080148308313 4.921689843193327 5.527256382428314 4.983856927353849 Q 5.592981008154322 5.045340856743376 5.592839925720414 5.12600051267958 Z M 5.478069238916693 5.036436627934655 Q 5.426950085574243 4.988615793965023 5.374017199215046 4.992502893357148 Q 5.321084312855848 4.996389992749274 5.2623330025503 5.0591935239985695 L 5.166008179840041 5.162162104302647 L 5.371945340448196 5.354811749723164 L 5.468270163158455 5.251843169419087 Q 5.580307545601593 5.132078295873918 5.478069238916693 5.036436627934655 Z M 5.730025066412864 4.353082857432215 L 5.954210628462157 4.779985461978782 L 6.17806873821664 4.934489658352698 L 6.138306628855706 4.99210020130422 L 5.914448519101223 4.837596004930305 L 5.434649396874496 4.781046890786375 L 5.479523777438979 4.716029278026801 L 5.88165707736887 4.772436804895975 L 5.685718715982109 4.417277462435339 L 5.730025066412864 4.353082857432215 Z" fill="#876a57" fill-rule="nonzero"></path></g><g clip-path="url(&quot;#SvgjsClipPath1009&quot;)"><g clip-path="url(&quot;#SvgjsClipPath1008&quot;)"><path d=" M 0 2.4038866945144686 L 0 4.610691897184506 L 2.2076510459826753 4.610691897184506 L 2.2076510459826753 3.9137170075715852 L 1.7424372240323032 3.9137170075715852 L 1.7424372240323032 3.10086158412739 L 2.2076510459826753 3.10086158412739 L 2.2076510459826753 2.4038866945144686 L 1.3135946645253236 2.4038866945144686 L 1.3135946645253236 1.9386728725640963 L 0.8940563814573516 1.9386728725640963 L 0.8940563814573516 2.4038866945144686 L 0 2.4038866945144686 Z" fill="#595959" transform="matrix(1,0,0,1,0,0)" fill-rule="evenodd"></path></g><g clip-path="url(&quot;#SvgjsClipPath1008&quot;)"><path d=" M 2.2076510459826753 0 L 0 0 L 0 2.2076510459826753 L 0.6978207329255582 2.2076510459826753 L 0.6978207329255582 1.7424372240323032 L 1.509830313057117 1.7424372240323032 L 1.509830313057117 2.2076510459826753 L 2.2076510459826753 2.2076510459826753 L 2.2076510459826753 1.3135946645253236 L 2.6728648679330473 1.3135946645253236 L 2.6728648679330473 0.8932105381447146 L 2.2076510459826753 0.8932105381447146 L 2.2076510459826753 0 Z" fill="#d3b39f" transform="matrix(1,0,0,1,0,0)" fill-rule="evenodd"></path></g><g clip-path="url(&quot;#SvgjsClipPath1008&quot;)"><path d=" M 4.610691897184506 2.2076510459826753 L 4.610691897184506 0 L 2.4038866945144686 0 L 2.4038866945144686 0.6978207329255582 L 2.869100516464841 0.6978207329255582 L 2.869100516464841 1.509830313057117 L 2.4038866945144686 1.509830313057117 L 2.4038866945144686 2.2076510459826753 L 3.2970972326591834 2.2076510459826753 L 3.2970972326591834 2.6728648679330473 L 3.7174813590397915 2.6728648679330473 L 3.7174813590397915 2.2076510459826753 L 4.610691897184506 2.2076510459826753 Z" fill="#595959" transform="matrix(1,0,0,1,0,0)" fill-rule="evenodd"></path></g><g clip-path="url(&quot;#SvgjsClipPath1008&quot;)"><path d=" M 2.4038866945144686 4.610691897184506 L 4.610691897184506 4.610691897184506 L 4.610691897184506 2.4038866945144686 L 3.9137170075715852 2.4038866945144686 L 3.9137170075715852 2.869100516464841 L 3.10086158412739 2.869100516464841 L 3.10086158412739 2.4038866945144686 L 2.4038866945144686 2.4038866945144686 L 2.4038866945144686 3.2970972326591834 L 1.9386728725640963 3.2970972326591834 L 1.9386728725640963 3.7174813590397915 L 2.4038866945144686 3.7174813590397915 L 2.4038866945144686 4.610691897184506 Z" fill="#876a57" transform="matrix(1,0,0,1,0,0)" fill-rule="evenodd"></path></g></g><g transform="matrix(-0.38446004360463804,-0.9231416331590293,0.9231416331590293,-0.38446004360463804,-5.791708406867234,3.103183102602901)"><g clip-path="url(&quot;#SvgjsClipPath1010&quot;)"><path d=" M -2.0260225491419734 3.5973021041159967 C -2.0260225491419734 3.626247512005652 -2.0083776251912835 3.643693255819445 -1.9784410536305939 3.643693255819445 L -1.7441023517768008 3.643693255819445 C -1.7143629302043872 3.643693255819445 -1.6965201795492146 3.626247512005652 -1.6965201795492146 3.5973021041159967 L -1.6965201795492146 3.3605838425066863 C -1.6965201795492146 3.331638209044962 -1.7143629302043872 3.3141915629428933 -1.7441023517768008 3.3141915629428933 L -1.9784410536305939 3.3141915629428933 C -2.0083776251912835 3.3141915629428933 -2.0260225491419734 3.331638209044962 -2.0260225491419734 3.3605838425066863 L -2.0260225491419734 3.5973021041159967 Z M -1.9871641511095595 3.5860009434608244 L -1.9871641511095595 3.371884326445652 C -1.9871641511095595 3.359989008960824 -1.9802253286961111 3.352851683126686 -1.9685280634878353 3.352851683126686 L -1.7536169816457663 3.352851683126686 C -1.7417225664492146 3.352851683126686 -1.7347839696078353 3.359989008960824 -1.7347839696078353 3.371884326445652 L -1.7347839696078353 3.5860009434608244 C -1.7347839696078353 3.598096117798755 -1.7417225664492146 3.6050347146401345 -1.7536169816457663 3.6050347146401345 L -1.9685280634878353 3.6050347146401345 C -1.9802253286961111 3.6050347146401345 -1.9871641511095595 3.598096117798755 -1.9871641511095595 3.5860009434608244 Z" fill="#595959" transform="matrix(1,0,0,1,0,0)" fill-rule="nonzero"></path></g></g><g transform="matrix(0.38446004360463804,-0.9231416331590293,-0.9231416331590293,-0.38446004360463804,7.198604643143339,10.795938716396194)"><g clip-path="url(&quot;#SvgjsClipPath1011&quot;)"><path d=" M 6.307211851161652 3.597302104115997 C 6.307211851161652 3.6262475120056523 6.324856775112342 3.6436932558194455 6.3547933466730315 3.6436932558194455 L 6.5891320485268245 3.6436932558194455 C 6.618871470099238 3.6436932558194455 6.636714220754411 3.6262475120056523 6.636714220754411 3.597302104115997 L 6.636714220754411 3.3605838425066867 C 6.636714220754411 3.3316382090449626 6.618871470099238 3.3141915629428937 6.5891320485268245 3.3141915629428937 L 6.3547933466730315 3.3141915629428937 C 6.324856775112342 3.3141915629428937 6.307211851161652 3.3316382090449626 6.307211851161652 3.3605838425066867 L 6.307211851161652 3.597302104115997 Z M 6.3460702491940655 3.586000943460825 L 6.3460702491940655 3.3718843264456524 C 6.3460702491940655 3.3599890089608246 6.353009071607514 3.3528516831266866 6.36470633681579 3.3528516831266866 L 6.579617418657859 3.3528516831266866 C 6.591511833854411 3.3528516831266866 6.59845043069579 3.3599890089608246 6.59845043069579 3.3718843264456524 L 6.59845043069579 3.586000943460825 C 6.59845043069579 3.5980961177987556 6.591511833854411 3.605034714640135 6.579617418657859 3.605034714640135 L 6.36470633681579 3.605034714640135 C 6.353009071607514 3.605034714640135 6.3460702491940655 3.5980961177987556 6.3460702491940655 3.586000943460825 Z" fill="#595959" transform="matrix(1,0,0,1,0,0)" fill-rule="nonzero"></path></g></g></g><defs><clipPath id="SvgjsClipPath1009"><path d=" M 0 0 h 4.610691897184506 v 4.610691897184506 h -4.610691897184506 Z"></path></clipPath><clipPath id="SvgjsClipPath1008"><path d=" M 0 0 L 4.610691897184506 0 L 4.610691897184506 4.610691897184506 L 0 4.610691897184506 Z"></path></clipPath><clipPath id="SvgjsClipPath1010"><path d=" M -2.1770721481112836 3.1554334896608243 h 0.6316017931034482 v 0.6541589999999999 h -0.6316017931034482 Z"></path></clipPath><clipPath id="SvgjsClipPath1011"><path d=" M 6.156162252192342 3.1554334896608247 h 0.6316017931034482 v 0.6541589999999999 h -0.6316017931034482 Z"></path></clipPath></defs></svg>